<svg width="5" height="7" viewBox="0 0 23 22" fill="none" xmlns="http://www.w3.org/2000/svg">
<path d="M14.3516 14.8242L15.791 16.2637" stroke="#FFFECB" stroke-width="1.20312"/>
<path d="M16.1562 16.6289L20.0879 20.5605L20.2813 20.7539V21.3984" stroke="#4CBCEC" stroke-width="1.20312"/>
<path d="M13.6641 15.5117L19.2178 21.0654C19.7339 21.5816 20.5708 21.5816 21.0869 21.0654V21.0654C21.6031 20.5493 21.6031 19.7124 21.0869 19.1963L15.4473 13.5566" stroke="black" stroke-width="0.859375"/>
<path d="M15.2539 17.1016L17.1016 15.2539" stroke="black" stroke-width="0.859375"/>
<path d="M7.99219 0.880868L5.41406 2.47071C8.26719 1.02696 11.1003 2.05535 12.1602 2.75001C15.718 5.03595 15.6335 8.88738 15.1465 10.5274C12.7059 16.3024 7.69857 15.7552 5.5 14.7598C5.92969 15.2926 7.36914 16.013 8.03516 16.3066C14.5664 16.2551 16.2565 11.1432 16.2852 8.59376C15.7352 2.01095 10.5273 0.708993 7.99219 0.880868Z" fill="#4CBCEC"/>
<circle cx="8.59375" cy="8.59375" r="8.16406" stroke="black" stroke-width="0.859375"/>
<path d="M8.80859 2.57812H8.55078L8.33594 2.66406L8.14258 2.75L7.9707 2.83594L7.73438 2.96484L7.51953 3.09375L7.17578 3.30859L6.91797 3.50195L6.53125 3.82422L6.27344 4.08203L5.99414 4.38281L5.71484 4.72656L5.5 5.02734L5.32812 5.30664L5.15625 5.62891L4.98438 5.97266L4.85547 6.27344L4.76953 6.53125L4.66211 6.875L4.55469 7.30469L4.49023 7.69141L4.44727 8.07812L4.42578 8.46484V8.55078V8.76562L4.44727 9.10938L4.49023 9.49609L4.57617 9.96875L4.68359 10.3984L4.8125 10.7852L4.96289 11.1719L5.07031 11.3867L5.28516 11.8164L5.5 12.1602L5.71484 12.4609L5.88672 12.6758L6.10156 12.9336L6.31641 13.1484L6.53125 13.3633L6.83203 13.6211L7.08984 13.8145L7.30469 13.9648L7.64844 14.1797L8.05664 14.3945L8.25 14.4805L8.44336 14.5664L8.55078 14.6094H8.59375H8.67969H8.85156L9.36719 14.5664L9.88281 14.4805L10.3125 14.373L10.9141 14.1582L11.3867 13.9434L11.7305 13.75L11.9453 13.6211L12.1387 13.4922L12.3965 13.2988L12.6758 13.0625L12.9336 12.8047L13.1699 12.5469L13.4492 12.2031L13.75 11.7734L13.8789 11.5586L14.0078 11.3008L14.2227 10.8281L14.373 10.4414L14.4805 10.0547L14.5664 9.625L14.6309 9.10938L14.6523 8.80859V8.33594L14.5879 7.69141L14.5234 7.34766L14.4375 7.00391L14.3516 6.70312L14.2227 6.35938L14.1152 6.10156L13.9863 5.84375L13.9004 5.67188L13.6641 5.28516L13.4492 4.98438L13.1914 4.66211L12.9766 4.42578L12.5898 4.06055L12.332 3.8457L12.0742 3.65234L11.7305 3.4375L11.4727 3.28711L11.2578 3.17969L11.0859 3.09375L10.6992 2.94336L10.5273 2.87891L10.2266 2.79297L9.88281 2.70703L9.53906 2.64258L9.15234 2.59961L8.80859 2.57812Z" fill="#BDE7F3"/>
<circle cx="8.59375" cy="8.59375" r="6.44531" stroke="black" stroke-width="0.859375"/>
<path d="M8.25 3.82974C9.61784 3.75813 12.5039 4.35396 13.1055 7.31021" stroke="black" stroke-width="0.859375" stroke-linecap="round"/>
<circle cx="13.2773" cy="8.59375" r="0.429687" fill="black"/>
</svg>
